<svg xmlns="http://www.w3.org/2000/svg" width="499" height="499" viewBox="0 0 499 499"><path fill="#4a0515" d="M497.79 406c.01 0 .01.01.01.01.39 0 .82-71.69.96-160.01l.24-143.55V499H0V0h499v84.39l-2.57-9.81c-7.34-27.94-23.33-48.92-49.29-64.63-4.04-2.45-9.22-5.65-11.5-7.12L431.5.16 250.25.08C140.46.03 69 .36 69 .92c0 .51-1.24 1.21-2.75 1.56-11.18 2.61-37.84 25.31-47.8 40.71-6.42 9.91-8.92 15.22-13.7 29.02L.5 84.5.24 238.13c-.15 84.5.08 154.56.5 155.71.57 1.53 1.17 1.83 2.27 1.16 1.3-.81 1.56-12.05 2.03-86.21.29-46.91.63-85.4.75-85.54 1.45-1.69 10.99 2.68 23.21 10.63 7.75 5.04 11.56 6.88 19 9.18 5.49 1.7 7.25 2.86 11.3 7.42 4.77 5.39 4.81 5.49 7.73 20.22 5.02 25.24 7.04 30.44 12.07 31.13 2.26.31 8.9 6.56 8.9 8.37 0 2.81-6.75 14.65-12.91 22.66-3.96 5.15-7.04 9.52-6.85 9.72.2.19 8.43-7.76 18.31-17.67 15.66-15.71 17.74-18.17 16.32-19.24-.9-.67-5.72-3.43-10.7-6.14-8.1-4.39-9.1-5.24-9.37-7.97-.17-1.68-.08-21.93.2-44.99l.5-41.94 21-11.43c11.55-6.29 26.18-14.28 32.5-17.75 6.32-3.48 15.32-8.23 20-10.56 9.37-4.68 17-10.25 17-12.43 0-.77.9-3 2-4.96 1.66-2.96 2.03-5.63 2.18-15.78l.18-12.22.69 15.5c.38 8.52.75 23.6.83 33.5l.15 18 9.91 5.26 9.92 5.26 8.71-9.99 8.71-9.99 8.61 7.9c4.74 4.34 10.84 10.18 13.57 12.98 2.73 2.79 5.53 5.08 6.22 5.08.99 0 1.18-5.6.87-26.13l-.39-26.12-2.83-1.87c-1.56-1.03-2.42-1.87-1.92-1.87.49-.01 2.41 1.14 4.26 2.55s4.26 2.63 5.35 2.72c1.93.14 1.98.94 1.98 29.25v29.1l2.92 2.79c1.6 1.54 3.4 2.5 3.99 2.13 1-.62 19.56-21.71 30.31-34.45 2.6-3.08 4.74-6.1 4.75-6.71.02-.61-1.26-4.25-2.85-8.09-2.69-6.54-2.76-7.04-1.1-8.08 2.09-1.31 2.99-.65 2.96 2.2-.01 1.71-.18 1.81-.98.58-.76-1.18-.97-.93-.98 1.14-.01 1.52.67 2.91 1.59 3.26 1.21.47 1.46.19 1-1.14-.42-1.21.02-1.01 1.41.63 1.12 1.32 2.17 2.22 2.34 2 .17-.21 1.07-3.53 1.99-7.37 1.62-6.73 3.86-10.64 5.28-9.22.38.37-.31 4.11-1.53 8.3s-2.05 7.78-1.85 7.98 4.16-3.94 8.81-9.19c8.4-9.51 10.2-12.94 11.65-22.14.4-2.53.15-3.25-1.1-3.25-1.14 0-1.61-.92-1.61-3.16v-3.15l2.44 2.84c1.35 1.57 2.22 3.21 1.94 3.66-.28.46.21 1.1 1.08 1.43 3.92 1.51 3.89 6.18-.08 10.14-1.49 1.49-.78 4.24 1.1 4.24.7 0 1.84-.68 2.52-1.5s1.83-1.5 2.56-1.5c1.41 0 2.11-1.9 2.3-6.31.07-1.54 1.31-4.36 2.75-6.25 2.02-2.65 3.36-3.44 5.81-3.44 1.75 0 3.79-.56 4.53-1.25 1.09-1.02 1.2-.97.56.25-.43.82.76-.07 2.64-2s3.22-3.95 2.97-4.5c-.24-.55-.08-.68.35-.28 1.27 1.14 6.44-6.07 6-8.37-.22-1.13-1.56-3.13-2.98-4.45-1.86-1.72-2.16-2.4-1.04-2.4.85 0 1.55.35 1.55.77 0 .43 1.58 1.62 3.5 2.66s3.5 2.42 3.5 3.07-1.46 2.55-3.25 4.23-4.83 4.98-6.75 7.33c-3.5 4.28-18.36 21.64-41.88 48.94-12.08 14.02-21.68 25.06-42.43 48.78l-9.86 11.28-20.29-19.53C228.39 202.79 218.79 194 218.22 194c-.58 0-8.4 8.64-17.38 19.2-8.99 10.56-18.36 21.5-20.84 24.31-4.43 5.03-75.07 87.68-84.27 98.6-6.78 8.03-5.83 8.4 2.02.79 6.91-6.7 17.9-16.36 26.67-23.43 8.34-6.73 16.64-13.47 27.41-22.24 5.68-4.62 10.48-8.25 10.67-8.06s-4.22 5.96-9.79 12.84c-26.02 32.08-43.71 54.54-43.67 55.47.02.56 1.48-.62 3.25-2.62 1.76-2 7.93-8.95 13.71-15.45 5.77-6.49 11.85-13.46 13.5-15.47 4.35-5.32 27.47-31.74 31-35.42 1.65-1.73 2.21-2.18 1.24-1-.97 1.17-1.45 2.43-1.08 2.8.37.38.13.68-.54.68-.66 0-1.12.56-1 1.25.11.69-.32 2.52-.96 4.07-1.72 4.18-1.48 4.68 2.23 4.68 4.83 0 5.15 2.18 1.07 7.23-1.9 2.35-4.98 6.52-6.84 9.27-3.64 5.38-19.84 25.87-26.84 33.94-5.49 6.33-23.74 30.81-23.76 31.87-.03 1.3 13.68-14.2 41.34-46.74 3.78-4.44 8.06-9.42 9.52-11.07s5.99-7.05 10.07-12 9.02-10.82 10.98-13.05c4.75-5.4 6.5-7.45 21.02-24.7 6.82-8.11 13.07-14.75 13.88-14.75.8 0 9.74 8.21 19.85 18.25 10.12 10.04 19.01 18.39 19.76 18.56.83.18 1.64-.89 2.04-2.71.79-3.59 7.07-13.48 11.09-17.44 1.58-1.55 5.87-4.58 9.52-6.71 7.19-4.2 10.85-8.1 44.59-47.45 56.61-66.04 64.86-75.5 65.84-75.5.26 0 5.54 4.72 11.73 10.49s11.53 10.49 11.87 10.5.93-2.35 1.3-5.24 3.76-24.15 7.55-47.25c3.78-23.1 7.13-43.87 7.45-46.15l.57-4.14-11.24 3.74c-6.19 2.07-12.37 4.21-13.75 4.76-4.88 1.97-23.55 8.13-26.5 8.74-2.72.56-2.6.38 1.32-2.01 2.37-1.45 4.57-2.39 4.87-2.08.31.3 2.34-.35 4.51-1.46 2.18-1.11 7.29-2.87 11.36-3.92 9.47-2.42 10.39-2.94 15.3-8.81 3.36-4.02 5.37-5.35 11.36-7.53 9.12-3.32 12.55-3.42 13.7-.39 1.47 3.91.36 16.78-1.64 19-1.4 1.55-1.79 3.79-1.84 10.61-.04 4.75-.82 12.69-1.74 17.64s-3.7 21.82-6.19 37.5c-2.48 15.68-4.96 30.52-5.5 33s-1.27 6.4-1.62 8.73-1.27 4.76-2.05 5.4c-1.59 1.32-1.71 1.23-17.19-13.63-5.16-4.95-10.02-9.61-10.81-10.37-1.21-1.15-1.75-1.08-3.54.5-3.92 3.48-17.8 19.79-17.8 20.92 0 .63 1.67 1.99 3.71 3.04 2.03 1.05 7.47 4.05 12.08 6.66 4.6 2.61 8.5 4.75 8.67 4.75.32 0 16.84 9.04 17.33 9.48.52.47.19 88.42-.34 89.79-.28.74-2.86 2.54-5.73 4-15.15 7.7-54.72 29.92-54.72 30.72 0 .42 6.3 6.79 14 14.16 13.9 13.3 14 13.42 14.02 17.87.01 5.68 1.21 7.86 3.34 6.1 3.09-2.57 2.89-6.58-.91-17.69-5.28-15.48-4.36-18.92 6.61-24.46 3.06-1.54 6.17-3.55 6.93-4.45.75-.91 2.64-2.31 4.2-3.12 1.56-.8 5.86-4.05 9.57-7.22s8.19-6.78 9.97-8.02c3.82-2.68 7.32-9.88 7.86-16.16.21-2.48 1.3-7.42 2.42-11 1.13-3.58 2.73-13.25 3.55-21.5 2.31-23.01 3.08-26.46 6.77-30.34 1.74-1.83 5.19-4.5 7.67-5.94 8.33-4.82 20.78-13.63 30-21.21 8.4-6.91 9.01-7.34 9.61-6.73 2.12 2.12 2.62 16.75 3.46 101.22.91 92.66 1.39 112.65 2.72 115.5M364 370.82c4.93 1.79 10.96-4.03 9.45-9.12-.36-1.21-6.11-7.71-12.78-14.45-10.48-10.57-12.58-12.25-15.33-12.25-2.22 0-3.8-.77-5.17-2.51l-1.97-2.5 2.85-5.27c5.8-10.7 6.1-23.98.8-35.36-2.88-6.2-11.9-15.24-18.35-18.4-4.39-2.16-6.34-2.46-16-2.46-9.98 0-11.52.26-16.61 2.75-7.03 3.46-15.18 11.97-18.59 19.4-3.39 7.41-4.08 16.71-1.9 25.37 4.38 17.35 21.84 30.02 39.62 28.75 6.7-.48 16.48-4.1 20.21-7.48 1.66-1.5 1.97-1.45 4.28.72 1.41 1.32 2.49 3.46 2.49 4.93 0 1.98 2.87 5.45 12.25 14.78 6.74 6.71 13.37 12.6 14.75 13.1m-9.5-64.61v10.7l10-5.36c5.5-2.95 17.2-9.39 26-14.31l16-8.94.26-35.65c.22-29.01.02-35.65-1.06-35.65-.72 0-3.99 1.62-7.26 3.6-3.27 1.97-8.53 4.9-11.69 6.51l-5.75 2.92v18.9l-14.5 8.01-.29-8.97c-.16-4.93-.42-8.97-.59-8.97s-5.89 3.08-12.72 6.85l-12.4 6.85-.29 8.8c-.27 8.08-.1 9.02 2.08 11.4 3.92 4.3 8.51 11.98 10.41 17.45 1.3 3.72 1.8 8.13 1.8 15.86m-115.03 59.4c3.28 1.81 6.15 3.1 6.37 2.88.42-.42.32-67.73-.1-67.99-.13-.08-2.94-1.65-6.24-3.48-19.07-10.61-27.9-15.02-28.6-14.32-.43.44-7.55 8.68-15.81 18.3l-15.03 17.5-.03 7.51-.03 7.52 9.25 4.87c8.3 4.37 34.4 18.52 50.22 27.21m79.37-31.19c-11.38 4.76-25.57 1.34-33.91-8.16-5.21-5.93-7.31-11.72-7.36-20.26-.05-9.18 2.29-14.91 8.69-21.32 6.2-6.19 13.98-9.02 23.24-8.44 14.13.88 24.81 10.39 27.43 24.42 2.49 13.3-5.7 28.58-18.09 33.76M103 292.96c9.27 5.37 10.02 5.62 11.8 3.84 2.25-2.25 1.21-3.41-6.87-7.72-7.36-3.92-10.04-6.3-8.66-7.68.91-.91 17.59 8.65 17.92 10.26.19.92 7.82-7.15 19.11-20.23l18.81-21.78-9.81-5.3c-5.39-2.92-10.14-5.32-10.55-5.33s-.75 4.01-.75 8.95v8.96l-7.25-3.93-7.25-3.93-.5-9.78-.5-9.79-11.5-6.23c-6.32-3.43-11.95-6.25-12.5-6.25-.66-.02-.83 12.14-.5 35.49l.5 35.52Zm35.5 204.13c5.48 1.23 235.31 1.03 236.07-.2 1.32-2.14-1.99-2.69-19.46-3.26-38.48-1.26-58.09-3.24-56.56-5.71.59-.95-4.85-4.92-6.74-4.92-.77 0-4.07-.7-7.35-1.56-6.83-1.78-48.31-3.74-50.03-2.36-.58.47-3.73 1.13-7 1.46-9.12.93-19.66 3.4-22.43 5.25-7.29 4.88-12.92 5.82-43.91 7.29-21.19 1.01-29.43 2.47-22.59 4.01m-28.29-280.88c6.67 3.68 12.39 6.55 12.71 6.37.32-.19 11.83-6.52 25.58-14.07 13.75-7.56 25.23-13.98 25.5-14.26.27-.29.05-.69-.5-.9-3.51-1.33-3.75-2.16-3.58-12.24.2-11.56-.14-11.92-7.33-7.72-2.25 1.31-17.36 9.68-33.59 18.58-16.22 8.9-29.82 16.49-30.21 16.87-.38.37 4.75 3.69 11.42 7.37m177.67 92.04L288 321h5v-12.44c0-6.84.4-12.69.9-13 1.59-.98 2.1 2.39 2.1 14.02 0 6.95.39 11.42 1 11.42.58 0 1-3.12 1-7.35 0-9.99 1.09-19.71 2.14-19.06.47.29.86 6.35.86 13.47V321h5v-12.5c0-11.41.8-15.07 2.39-10.92.34.87.61 6.5.61 12.5 0 10.25.12 10.92 2 10.92 1.9 0 2-.67 2-13 0-10.28.28-13 1.36-13 1.54 0 2.64 7.99 2.64 19.15 0 3.9.43 6.85 1 6.85.62 0 1-5 1-13 0-17.1 1.85-17.31 2.22-.25l.28 12.75 2.75.32 2.75.31v-28.96l-4.5-3.96c-4.8-4.23-7.78-5.21-15.81-5.21-5.8 0-12.03 2.64-15.92 6.75-.83.88-1.44 1.48-1.87 2.19-1.16 1.86-1.13 4.45-1.03 14.83 0 .48.01.97.01 1.48M256 384.11c0 .66.71.82 1.75.39.96-.39 4.23-1.32 7.25-2.07 6.21-1.52 20.47-6.89 23.5-8.84 1.1-.71 3.8-1.86 6-2.56s5.4-2.12 7.12-3.15c4.65-2.81 23.8-2.73 29.38.12 2.16 1.1 4.47 2 5.15 2s3.54 2.42 6.36 5.38c4.64 4.86 10.52 7.92 12.14 6.31 1.68-1.69-7.14-11.86-11.4-13.15-1.24-.37-2.25-1.28-2.25-2.02 0-1.67-9.55-13.21-12.03-14.54-1.25-.66-3.68-.52-7.65.45-3.2.79-8.71 1.74-12.24 2.12s-8.25 1.68-10.5 2.9c-19.14 10.38-32.76 18.54-36.31 21.74-2.32 2.09-4.69 3.81-5.25 3.81s-1.02.5-1.02 1.11m-18 1.12c2.62.83 7 .33 7-.8 0-.6-1.69-2.45-3.75-4.1-4.53-3.64-12.24-8.08-42.25-24.33-7.43-4.03-17.53-9.55-22.45-12.28l-8.95-4.96-4.8 5.37c-2.65 2.95-7.37 8.52-10.49 12.37-3.13 3.85-7.4 9.11-9.5 11.68-2.09 2.57-3.81 4.93-3.81 5.24 0 .3 4.61-3.32 10.25-8.06 5.64-4.73 11.71-9.5 13.5-10.58 1.79-1.09 3.25-2.37 3.25-2.84 0-.48.93-1.37 2.06-1.97 1.56-.84 2.45-.79 3.6.16 2.5 2.08 17.75 10.87 18.85 10.87 1.48 0 10.67 4.95 12.99 7.01 1.1.97 3.8 2.65 6 3.72 2.2 1.08 5.35 2.66 7 3.53 4.35 2.27 19.74 9.41 21.5 9.97m127.48-169.34 12.97 7.05 5.53-3.11c13.38-7.51 18.02-10.29 18.02-10.79 0-.67-27.95-15.8-29.98-16.23-.81-.17-2.1-.89-2.86-1.6-.77-.72-1.9-1.13-2.53-.93-1.93.63-15.66 17.1-14.87 17.85.41.39 6.58 3.88 13.72 7.76M254 336c0 18.15.21 33 .47 33 .25 0 7.91-4.12 17.02-9.15l16.56-9.14-3.05-1.86c-1.68-1.02-3.34-1.85-3.7-1.85-.35 0-1.47-.74-2.47-1.65-1.7-1.54-1.83-1.54-1.83 0 0 2.66-.12 3.08-1.21 4.4-1.99 2.4-2.79 1.21-2.79-4.19 0-7.98-1.85-7.91-2.2.08-.19 4.25-.76 6.85-1.55 7.11-.94.32-1.25-1.98-1.25-9.34 0-7.17-.39-10.18-1.47-11.37-2.21-2.45-6.21-13.84-7.02-20.04-.68-5.12-2.69-9-4.66-9-.47 0-.85 14.85-.85 33m-105.72-98.33c6.17 3.39 11.3 6.2 11.4 6.25.09.04 5.06-5.66 11.04-12.67.61-.71 1.2-1.41 1.78-2.09 18.33-21.51 20.42-23.96 19.85-25.18-.09-.19-.25-.35-.42-.56-.64-.78-1.68-1.41-2.3-1.4-1.66.04-52.65 28.11-52.6 28.96.02.29 5.08 3.3 11.25 6.69m182.22 5.16c3.3 1.69 6.31 2.98 6.68 2.87 2.03-.6 25.79-14.31 25.8-14.9.02-.65-20.05-11.8-21.23-11.8-.8 0-18.08 20.01-17.63 20.41.21.19 3.08 1.73 6.38 3.42M240 348.08c0 6-.34 10.9-.75 10.87-.41-.02-5.48-2.65-11.25-5.84l-10.5-5.79-.28-10.66c-.2-7.45.05-10.66.85-10.66.62 0 5.81 2.51 11.53 5.58l10.4 5.58Zm-11.75 2.11c4.54 2.58 8.36 4.72 8.5 4.75s.25-3.77.25-8.44-.39-8.5-.86-8.5c-.48 0-4.14-1.8-8.14-4s-7.44-4-7.64-4-.36 3.49-.36 7.75l.01 7.75Zm99.43-87.8c4.71 2.56 5.32 2.12 5.32-3.8v-5.42l-7.2-4.15c-7.03-4.05-7.23-4.1-8.75-2.19-.85 1.07-3 3.74-4.77 5.92-3.48 4.29-3.37 5.24.64 5.26 3.18.01 10.97 2.32 14.76 4.38M276 180.26c0 4.65-.36 5.86-2 6.74-1.94 1.04-2 .76-2-8.86 0-12.1 1.17-13.33 7.17-7.47l3.83 3.74v-6.1c0-5.7.79-7.31 3.58-7.31.23 0 .42 4.22.42 9.38 0 12.23-1.28 13.7-7.04 8.08l-3.96-3.87Zm94.8 114.34c-.24 4.66-.66 5.95-2.05 6.21-1.57.3-1.75-.65-1.75-9.13 0-11.61 1.23-12.81 7.17-7.01l3.83 3.74v-6.1c0-5.72.79-7.31 3.62-7.31.25 0 .32 4.38.17 9.74-.26 8.56-.51 9.78-2.15 10.09-1.08.21-3.24-.99-5.19-2.88l-3.34-3.24Zm22.39-6.93c-2.34 2.33-3.24 1.5-6.85-6.3-2.81-6.08-3.25-7.81-2.18-8.49 2.52-1.6 3.57-.88 5.29 3.62.94 2.48 2.04 4.5 2.44 4.5s1.54-3.14 2.53-6.97c1.69-6.5 3.84-10.1 5.21-8.73.87.86-4.88 20.81-6.44 22.37M220 146c0 4.95-.34 8.98-.75 8.95s-3.79-1.91-7.5-4.16l-6.75-4.11v-9.04c0-7.23.25-8.79 1.25-7.79.77.77 1.25 4.02 1.25 8.43 0 7.98 1.16 10.08 5.75 10.43 2.45.19 2.76-.14 2.87-3 .06-1.77.04-3.81-.06-4.53-.21-1.51 1.75-4.18 3.06-4.18.49 0 .88 4.05.88 9m9.09 136.96c5.72 3.24 10.61 5.92 10.86 5.96.86.15-7.46-8.1-13.32-13.21l-5.88-5.12-1.91 2.36c-1.1 1.36-1.55 2.74-1.04 3.25.48.48 5.56 3.53 11.29 6.76M264 356.02c-.83.52-1.84.96-2.25.96-.41.01-.75-4.69-.75-10.44 0-9.33.21-10.58 1.93-11.5 1.07-.57 2.11-1.04 2.31-1.04.21 0 .35 4.74.32 10.54-.05 8.23-.39 10.74-1.56 11.48m-29.64-213.51c.32.82.48 1.47.36 1.44-1.8-.4-13.72-7.21-13.72-7.83 0-.47 1.4-.7 3.1-.5 2.5.29 2.99.06 2.5-1.21-.33-.87-.6-1.76-.6-1.99s-.56-.43-1.25-.44-3.23-1.36-5.65-3c-5.57-3.77-3.01-3.93 2.95-.18 2.45 1.53 5.91 3.39 7.7 4.12s3.25 1.61 3.25 1.95c0 .35 2.03 1.71 4.52 3.03 2.48 1.32 4.35 2.56 4.15 2.76s-2.35-.69-4.77-1.98c-4.98-2.66-7.39-2.88-7.43-.68-.02 1.63 2.6 4.08 3.66 3.42.37-.23.92.26 1.23 1.09M362.8 304.8c-1.06 1.06-2.79 1.64-2.81.95 0-.14-.17-4.43-.36-9.54-.3-8.01-.11-9.42 1.38-10.21 1.49-.8 1.81-.3 2.36 3.67.99 7.23.74 13.82-.57 15.13M494.59 22.86c-.28.44.13.81.9.81 2.33 0 .14-2.97-10.14-13.68-7.53-7.84-10.08-9.91-12.04-9.75-2.36.2-2.27.41 2.11 4.54 2.79 2.64 5.07 4.05 5.83 3.62.69-.4.9-.34.48.12-.86.95 5.19 7.65 6.29 6.97.98-.61 7.19 6.36 6.57 7.37M266.42 191.39c-.87.34-1.79.61-2.04.61s-.32-4.38-.17-9.74c.25-8.34.54-9.78 2.04-10.07 1.57-.3 1.75.65 1.75 9.13 0 7.71-.29 9.58-1.58 10.07M4 23.55c0 .25 1.57-1.22 3.5-3.26S11 16.2 11 15.73s.52-.53 1.15-.13c.72.44.89.27.45-.45-.43-.69-.07-1.15.9-1.15.89 0 1.38-.38 1.1-.84-.29-.46 1.29-2.15 3.51-3.75 2.21-1.6 5.84-4.37 8.05-6.16C29.95.2 30.04 0 27.7 0c-1.71 0-4.88 2.23-10.09 7.09C11.27 13.01 4 21.81 4 23.55M107.16 272.9c-.56.35-1.17 2.52-1.34 4.84-.43 5.65-2.4 4.33-3.35-2.24-.4-2.75-1.11-5.49-1.59-6.1-.82-1.03 2.63-5.28 3.5-4.31 1.74 1.94 3.64 7.28 2.78 7.81m94.59-92.4c.33 2.9.12 4.5-.58 4.5-1.68 0-3.17-3.47-3.17-7.38 0-1.92-.48-3.8-1.07-4.16-.69-.43-.47-1.32.66-2.56 2.34-2.59 2.78-2.44 4.71 1.6 1.33 2.8 1.4 3.5.31 3.5-1.02 0-1.24 1.12-.86 4.5m-85.47 97.33c-.63.38-1.29 2.64-1.46 5-.26 3.44-.57 4.04-1.57 3.03-.69-.69-1.25-2.98-1.25-5.07 0-2.1-.54-4.67-1.19-5.72-.93-1.5-.91-2.25.12-3.49 1.96-2.35 2.92-1.96 4.8 1.98 1.23 2.58 1.38 3.75.55 4.27M153 309.19c0 1 .25 1.81.56 1.81.72 0 8.72-6.2 9.67-7.5 1.72-2.33-.26-4.8-3.02-3.77-2.62.97-7.21 6.99-7.21 9.46m50-118.66c0 2.21-1.79 1.68-9.73-2.88-6.59-3.78-9.21-6.67-6.02-6.64 2.43.03 15.75 8.08 15.75 9.52m-11-15.03c0 4.2-.74 5.42-2.33 3.83-.37-.36-.67-2.82-.67-5.45 0-3.26-.49-5.05-1.54-5.64-1.33-.75-1.26-1.11.53-2.73 2.23-2.02 2.95-1.6 4.8 2.74.71 1.66.78 2.75.19 2.75-.54 0-.98 2.02-.98 4.5m43 170c0 3.02-.36 5.5-.8 5.5-1.98 0-3.2-2.79-3.2-7.31 0-4.06.27-4.8 1.58-4.3.87.34 1.77.61 2 .61s.42 2.48.42 5.5m50.08-194.14c-.78.96-2.24 2.19-3.25 2.73-1.71.92-1.82.44-1.68-7.3.08-4.56.33-7.09.56-5.61.22 1.47 1.06 3.21 1.85 3.87s1.44 2.29 1.44 3.63c0 1.68.39 2.21 1.25 1.69.8-.48.74-.13-.17.99m-60.49 184.02c.29.75.39 3.48.22 6.06-.25 3.75-.56 4.43-1.56 3.42-1.5-1.51-1.69-10.86-.22-10.86.57 0 1.27.62 1.56 1.38m4.63 5.87c-.49 6.32-.65 7-1.47 6.17-1.33-1.34-.88-10.42.53-10.42.88 0 1.17 1.3.94 4.25"/><path fill="#981127" d="M78.15 283.26c.8 3.02 1.65 4.37 2.52 4.04 1.04-.4 1.36-8.86 1.57-41.61l.26-41.11 2.5-1.25c2.28-1.14 22.41-11.87 40.17-21.41-6.48 3.55-14.08 7.69-20.67 11.28l-21 11.43-.5 41.94c-.28 23.06-.37 43.31-.2 44.99.27 2.73 1.27 3.58 9.37 7.97 4.98 2.71 9.8 5.47 10.7 6.14 1.42 1.07-.66 3.53-16.32 19.24-9.88 9.91-18.11 17.86-18.31 17.67-.19-.2 2.89-4.57 6.85-9.72C81.25 324.85 88 313.01 88 310.2c0-1.81-6.64-8.06-8.9-8.37-5.03-.69-7.05-5.89-12.07-31.13-2.92-14.73-2.96-14.83-7.73-20.22-4.05-4.56-5.81-5.72-11.3-7.42-7.44-2.3-11.25-4.14-19-9.18-12.22-7.95-21.76-12.32-23.21-10.63-.12.14-.46 38.63-.75 85.54-.47 74.16-.73 85.4-2.03 86.21-1.1.67-1.7.37-2.27-1.16-.42-1.15-.65-71.21-.5-155.71l.12-72.05c.15 27.58 1.07 38.59 3.18 42.65 1.28 2.45 1.45-3.94 1.45-54.6.01-63.45.54-70.98 6.04-86.22C24.37 30.96 57.81 5.58 95.9 3.49c6.41-.35 8.94-.21 7.6.42-1.4.66-1.55.98-.5 1.05 1.27.09 1.25.3-.14 1.35-1.23.94-1.53 2.36-1.18 5.72.7 6.94.43 12.26-.67 13.36-1.57 1.57-1.2 4.1.99 6.88 1.44 1.83 2 4.06 2 7.94 0 2.96.5 5.89 1.11 6.5s1.51 3.2 1.98 5.75c.48 2.55 1.61 5.38 2.51 6.28s2.08 2.79 2.61 4.2c.54 1.41 4.07 5.26 7.84 8.56 5.88 5.13 6.79 6.38 6.36 8.6-.73 3.79 4.61 9.56 9.65 10.41 4.56.77 7.94 3.45 7.94 6.3 0 1.14.45 2.35 1 2.69s1.01 2.28 1.02 4.31 1.35 8.64 2.98 14.69c3.28 12.18 3.88 23.3 1.59 29.71-1.58 4.43-6.11 10.05-9.59 11.91-1.38.73-5.05 3.26-8.17 5.61s-7.46 5.28-9.63 6.52c-2.18 1.24-7.27 4.41-11.33 7.05-4.05 2.65-13.54 8.42-21.09 12.84-12.95 7.58-13.76 8.23-14.41 11.69-1.12 6.01.4 74.28 1.78 79.43M497.79 406c-1.33-2.85-1.81-22.84-2.72-115.5-.84-84.47-1.34-99.1-3.46-101.22-.6-.61-1.21-.18-9.61 6.73-9.22 7.58-21.67 16.39-30 21.21-2.48 1.44-5.93 4.11-7.67 5.94-3.69 3.88-4.46 7.33-6.77 30.34-.82 8.25-2.42 17.92-3.55 21.5-1.12 3.58-2.21 8.52-2.42 11-.54 6.28-4.04 13.48-7.86 16.16-1.78 1.24-6.26 4.85-9.97 8.02s-8.01 6.42-9.57 7.22c-1.56.81-3.45 2.21-4.2 3.12-.76.9-3.87 2.91-6.93 4.45-10.97 5.54-11.89 8.98-6.61 24.46 3.8 11.11 4 15.12.91 17.69-2.13 1.76-3.33-.42-3.34-6.1-.02-4.45-.12-4.57-14.02-17.87-7.7-7.37-14-13.74-14-14.16 0-.8 39.57-23.02 54.72-30.72 2.87-1.46 5.45-3.26 5.73-4 .39-1.02.68-49.88.58-75.09.35 19.51 1.52 49.47 2.22 52.55 2.93 12.86 4.6-1.99 4.69-41.79l.06-28.56-3.06-2.27c-5.11-3.77-8.77-11.11-5.55-11.11 2.64 0 2.57-3.08-.17-7.48-1.51-2.42-6.75-8.49-11.63-13.49-8.67-8.85-8.93-9.03-10.89-7.3-.02.02-.05.04-.07.06.06-.05.12-.11.17-.16 1.79-1.58 2.33-1.65 3.54-.5.79.76 5.65 5.42 10.81 10.37 15.48 14.86 15.6 14.95 17.19 13.63.78-.64 1.7-3.07 2.05-5.4s1.08-6.25 1.62-8.73c.29-1.3 1.11-6.03 2.18-12.5-.9 5.84-1.54 10.12-1.72 11.64-.37 3.1-.36 6.62.01 7.8.59 1.84.93 1.97 2.27.86 3.36-2.78 11.25-25.68 11.25-32.68 0-1.64.48-4.26 1.07-5.8.6-1.55 2.21-8 3.6-14.32 3.22-14.73 4.9-21.63 6.31-26 .63-1.93 2.61-12.28 4.41-23 3.05-18.13 3.19-19.97 2.01-26.16-2-10.5-7.38-18.84-12.17-18.84-.82 0-3.04-.95-4.92-2.12-1.91-1.18-5.74-2.3-8.62-2.54-8.9-.71-13.72-2.52-16.54-6.21l-2.57-3.37 2.53-2.18c2.57-2.21 2.79-4.58.42-4.58-.71 0-1.54-.93-1.84-2.08-.5-1.92-.25-2.02 3.58-1.37 9.81 1.65 23.52 7.74 33.23 14.74 20.47 14.77 33.05 33.06 39.71 57.71 1.89 6.98 2.08 11.65 2.73 67 .61 52.42.89 59.86 2.34 62.5 1.05 1.91 1.43.74 1.58-18.9l-.1 57.4c-.14 88.32-.57 160.01-.96 160.01 0 0 0-.01-.01-.01M220 146c0-4.95-.39-9-.88-9-1.31 0-3.27 2.67-3.06 4.18.1.72.12 2.76.06 4.53-.11 2.86-.42 3.19-2.87 3-4.59-.35-5.75-2.45-5.75-10.43 0-4.41-.48-7.66-1.25-8.43-.99-.99-1.25.54-1.25 7.63v-9.44l-3.75-2.03c-2.06-1.12-7.35-4.03-11.75-6.48-4.4-2.44-8.34-4.46-8.75-4.48-.41-.03-.74 16.04-.73 35.7l.01 35.75-.15-18c-.08-9.9-.45-24.98-.83-33.5l-.69-15.5-.18 12.22c-.15 10.15-.52 12.82-2.18 15.78-1.1 1.96-2 4.19-2 4.96 0 2.18-7.63 7.75-17 12.43-2.46 1.23-6.11 3.12-9.95 5.15 4.18-2.35 7.79-4.45 9.45-5.52 2.75-1.77 6.57-4.1 8.5-5.18l3.5-1.95.5-26.94.5-26.95 10.5-5.83c5.77-3.21 17.02-9.34 25-13.62s21.37-11.48 29.77-16l15.26-8.22 15.24 8.23c8.37 4.53 20.18 10.94 26.23 14.23 6.05 3.3 16.19 8.78 22.54 12.19 10.16 5.46 14.27 7.17 15.94 10.21 1.14 2.07 1.16 4.75 1.19 9.64.01 1.26.02 2.66.05 4.24l.28 14.37 7.96-9.14 7.96-9.15-2.87-2.07c-8.47-6.13-29.61-22.85-29.29-23.17.36-.36 32.59-11.77 71.74-25.4 10.73-3.73 28.48-9.98 39.45-13.9C437.42 46.2 447.02 43 447.77 43c.84 0 1.16.68.83 1.75-.29.96-1.9 10.3-3.58 20.75-1.42 8.9-3.27 20.17-4.46 27.23.5-4.16.85-8.72.88-11.87.05-6.82.44-9.06 1.84-10.61 2-2.22 3.11-15.09 1.64-19-1.15-3.03-4.58-2.93-13.7.39-5.99 2.18-8 3.51-11.36 7.53-4.91 5.87-5.83 6.39-15.3 8.81-4.07 1.05-9.18 2.81-11.36 3.92-2.17 1.11-4.2 1.76-4.51 1.46-.3-.31-2.5.63-4.87 2.08-3.92 2.39-4.04 2.57-1.32 2.01 1.62-.33 7.96-2.34 14.17-4.4l-4.17 1.46c-10.45 3.67-26.2 9.11-35 12.08s-16.56 5.61-17.24 5.87c-1.35.51 3.03 5.54 4.82 5.54.54 0 1.24.68 1.56 1.5.31.82.96 1.5 1.44 1.5.62 0 4.4 2.46 8.11 5.09-.22-.06-.47-.09-.74-.09-1.12 0-.82.68 1.04 2.4 1.42 1.32 2.76 3.32 2.98 4.45.44 2.3-4.73 9.51-6 8.37-.43-.4-.59-.27-.35.28.25.55-1.09 2.57-2.97 4.5s-3.07 2.82-2.64 2c.64-1.22.53-1.27-.56-.25-.74.69-2.78 1.25-4.53 1.25-2.45 0-3.79.79-5.81 3.44-1.44 1.89-2.68 4.71-2.75 6.25-.19 4.41-.89 6.31-2.3 6.31-.73 0-1.88.68-2.56 1.5s-1.82 1.5-2.52 1.5c-1.88 0-2.59-2.75-1.1-4.24 3.97-3.96 4-8.63.08-10.14-.87-.33-1.36-.97-1.08-1.43.28-.45-.59-2.09-1.94-3.66l-2.44-2.84v3.15c0 2.24.47 3.16 1.61 3.16 1.25 0 1.5.72 1.1 3.25-.66 4.16-1.38 7.14-2.76 10.04l.02-14.12c.02-9.31-.36-16.19-.87-16-.5.18-6.11 3.25-12.47 6.82l-11.56 6.49-.29 9.29-.28 9.3-7.25 4-4.82 2.66c.92-.62 2.02-1.58 2.65-2.37.91-1.12.97-1.47.17-.99-.86.52-1.25-.01-1.25-1.69 0-1.34-.65-2.97-1.44-3.63s-1.63-2.4-1.85-3.87c-.23-1.48-.48 1.05-.56 5.61-.13 6.93-.05 8.04 1.2 7.53l-1.35.75v-9.04c0-4.96-.2-9.03-.45-9.03-.86 0-6.05 2.46-6.55 3.1-.27.36-4.55 2.89-9.5 5.63l-9 4.99-.26 30.31c-.26 29.24-.25 30.29 1.76 32.47l-.08-.08-2.92-2.79v-29.1c0-28.31-.05-29.11-1.98-29.25-1.09-.09-3.5-1.31-5.35-2.72s-3.77-2.56-4.26-2.55c-.5 0 .36.84 1.92 1.87l1.8 1.19-11.57-6.36c-6.72-3.69-12.52-6.71-12.89-6.71s-.67 4.05-.67 9-.26 9-.58 9c-.03 0-.09-.02-.19-.06.43.04.77-3.99.77-8.94m-65.79 154.87c4.67-5.45 8.45-9.9 10.5-12.37 2.74-3.3 6.85-7.86 9.14-10.13 2.28-2.28 4.15-4.43 4.15-4.78 0-.36 1.35-2.1 3-3.87 2.44-2.61 22.11-25.82 35.27-41.6l2.77-3.32 14.73 14.02c8.1 7.71 17.19 16.53 20.2 19.6 3 3.07 5.93 5.55 6.5 5.51 1.12-.08 5.62-5.23 52.73-60.43 17.37-20.35 33.46-39.02 35.75-41.5l4.16-4.5-4.61 5.85c-2.53 3.22-5.69 7.57-7.01 9.67-1.32 2.09-3.26 4.41-4.31 5.14-3.17 2.23-13.2 15-12.57 16.02.32.52-.18 1.79-1.11 2.82-3.23 3.57.95 5.47 5.32 2.41 1.77-1.24 2.58-1.33 3.69-.4 1.23 1.02 1.19 1.52-.29 3.56-.95 1.31-2.31 2.17-3.02 1.91-.72-.25-1.03-.01-.69.53.33.55.08.99-.56.99-.66 0-.9.7-.55 1.61.44 1.14.19 1.45-.84 1.05-.98-.37-1.28-.08-.9.89.31.81-.05 1.5-.8 1.57-.75.06-1.86.17-2.46.25-1.71.2-6.4 6.21-6.4 8.18 0 1.74-5.04 8.82-10.83 15.21-1.63 1.8-4.47 5.32-6.31 7.84-1.85 2.51-4.6 6.05-6.11 7.86-3.17 3.8-3.43 4.74-1.09 3.84 1.25-.48 1.45-.29.81.78-.48.78.79.07 2.82-1.58 3.17-2.59 19.23-20.82 59.85-68.01-7.58 8.82-16.64 19.38-27.46 32.01-33.74 39.35-37.4 43.25-44.59 47.45-3.65 2.13-7.94 5.16-9.52 6.71-4.02 3.96-10.3 13.85-11.09 17.44-.4 1.82-1.21 2.89-2.04 2.71-.75-.17-9.64-8.52-19.76-18.56-9.33-9.27-17.67-16.98-19.53-18.11 1.59.89 7.17 5.85 13.21 11.78 12.16 11.94 16.83 16.08 18.17 16.08.39 0 .19-.63-.45-1.4-.89-1.08-.87-1.5.12-1.83 1.25-.42-30.43-32.77-32.1-32.77-1 0-13.62 14.7-42.5 49.5-7.39 8.92-13.61 16.46-18.78 22.82 2.64-3.43 4.75-6.26 5.8-7.82 1.86-2.75 4.94-6.92 6.84-9.27 4.08-5.05 3.76-7.23-1.07-7.23-3.71 0-3.95-.5-2.23-4.68.64-1.55 1.07-3.38.96-4.07-.12-.69.34-1.25 1-1.25.67 0 .91-.3.54-.68-.37-.37.11-1.63 1.08-2.8.97-1.18.41-.73-1.24 1-1.86 1.94-9.16 10.2-16.29 18.35M138.5 497.09c-6.84-1.54 1.4-3 22.59-4.01 30.99-1.47 36.62-2.41 43.91-7.29 2.77-1.85 13.31-4.32 22.43-5.25 3.27-.33 6.42-.99 7-1.46 1.72-1.38 43.2.58 50.03 2.36 3.28.86 6.58 1.56 7.35 1.56 1.89 0 7.33 3.97 6.74 4.92-1.53 2.47 18.08 4.45 56.56 5.71 17.47.57 20.78 1.12 19.46 3.26-.76 1.23-230.59 1.43-236.07.2m95.86-354.58c-.31-.83-.86-1.32-1.23-1.09-1.06.66-3.68-1.79-3.66-3.42.04-2.2 2.45-1.98 7.43.68 2.42 1.29 4.57 2.18 4.77 1.98s-1.67-1.44-4.15-2.76c-2.49-1.32-4.52-2.68-4.52-3.03 0-.02-.01-.04-.02-.07 6.68 3.73 11.68 6.64 11.95 7.07.32.5 1.47 1.12 2.57 1.4 1.1.27 2.09.55 2.21.61.29.17 17.47-8.65 19.29-9.9.83-.56 3.02-1.94 4.87-3.06l3.37-2.04-32.64-18.04-32.64-18.04-13.48 7.35c-7.41 4.04-13.48 7.62-13.48 7.96s2.02 1.69 4.5 3 4.5 2.75 4.5 3.2c0 .44.45.53 1 .19s1-.14 1 .44.61 1.06 1.36 1.06c.71 0 10.26 4.98 20.61 10.57-2.68-1.16-2.89-.31 1.13 2.41 2.42 1.64 4.96 2.99 5.65 3s1.25.21 1.25.44.27 1.12.6 1.99c.49 1.27 0 1.5-2.5 1.21-1.7-.2-3.1.03-3.1.5 0 .62 11.92 7.43 13.72 7.83.12.03-.04-.62-.36-1.44M286 118.28c2.48 1.45 4.73 2.66 5 2.68 1.13.1 13-5.31 13-5.93 0-.36 2.7-1.95 6-3.53s6-3.16 6-3.52-1.24-1.22-2.75-1.9-9.5-4.96-17.75-9.51c-20.61-11.37-38.36-21.02-42.27-23-.81-.4-1.37-.75-1.98-.91-1.95-.51-4.39.85-17.05 7.92-.94.52-1.94 1.08-3 1.67l-5.29 2.95 27.79 15.22c15.29 8.38 29.82 16.41 32.3 17.86m-30 265.83c0-.61.46-1.11 1.02-1.11s2.93-1.72 5.25-3.81c3.55-3.2 17.17-11.36 36.31-21.74 2.25-1.22 6.97-2.52 10.5-2.9s9.04-1.33 12.24-2.12c3.97-.97 6.4-1.11 7.65-.45 2.48 1.33 12.03 12.87 12.03 14.54 0 .74 1.01 1.65 2.25 2.02 4.26 1.29 13.08 11.46 11.4 13.15-1.62 1.61-7.5-1.45-12.14-6.31-2.82-2.96-5.68-5.38-6.36-5.38s-2.99-.9-5.15-2c-5.58-2.85-24.73-2.93-29.38-.12-1.72 1.03-4.92 2.45-7.12 3.15s-4.9 1.85-6 2.56c-3.03 1.95-17.29 7.32-23.5 8.84-3.02.75-6.29 1.68-7.25 2.07-1.04.43-1.75.27-1.75-.39m-18 1.12c-1.76-.56-17.15-7.7-21.5-9.97-1.65-.87-4.8-2.45-7-3.53-2.2-1.07-4.9-2.75-6-3.72-2.32-2.06-11.51-7.01-12.99-7.01-1.1 0-16.35-8.79-18.85-10.87-1.15-.95-2.04-1-3.6-.16-1.13.6-2.06 1.49-2.06 1.97 0 .47-1.46 1.75-3.25 2.84-1.79 1.08-7.86 5.85-13.5 10.58-5.64 4.74-10.25 8.36-10.25 8.06 0-.31 1.72-2.67 3.81-5.24 2.1-2.57 6.37-7.83 9.5-11.68 3.12-3.85 7.84-9.42 10.49-12.37l4.8-5.37 8.95 4.96c4.92 2.73 15.02 8.25 22.45 12.28 30.01 16.25 37.72 20.69 42.25 24.33 2.06 1.65 3.75 3.5 3.75 4.1 0 1.13-4.38 1.63-7 .8m-104.4-32.06c.86 1.38 5.62-3.58 22.25-23.17 5.83-6.88 10.86-12.73 11.17-13l.04-.04c-.96 1.13-1.72 2.02-2.18 2.54-1.46 1.65-5.74 6.63-9.52 11.07-27.66 32.54-41.37 48.04-41.34 46.74.02-1.06 18.27-25.54 23.76-31.87 1.64-1.89 3.78-4.46 6.14-7.35-5.53 7.3-7.55 10.71-7.17 11.69q.585 1.545-.6.81c-.73-.45-1.09-.22-.92.59.15.72-.33 1.2-1.05 1.05-.82-.17-1.04.19-.58.94M494.59 22.86c.62-1.01-5.59-7.98-6.57-7.37-1.1.68-7.15-6.02-6.29-6.97.42-.46.21-.52-.48-.12-.76.43-3.04-.98-5.83-3.62-4.38-4.13-4.47-4.34-2.11-4.54 1.96-.16 4.51 1.91 12.04 9.75 10.28 10.71 12.47 13.68 10.14 13.68-.77 0-1.18-.37-.9-.81M84.54 323.57c-.26 2.37.48 1.89 6.71-4.34 6.81-6.81 7.79-9.23 3.72-9.23-2.4 0-10.03 9.91-10.43 13.57M4 23.55c0-1.74 7.27-10.54 13.61-16.46C22.82 2.23 25.99 0 27.7 0c2.34 0 2.25.2-1.54 3.25-2.21 1.79-5.84 4.56-8.05 6.16-2.22 1.6-3.8 3.29-3.51 3.75.28.46-.21.84-1.1.84-.97 0-1.33.46-.9 1.15.44.72.27.89-.45.45-.63-.4-1.15-.34-1.15.13s-1.57 2.52-3.5 4.56S4 23.8 4 23.55m149 285.64c0-2.47 4.59-8.49 7.21-9.46 2.76-1.03 4.74 1.44 3.02 3.77-.95 1.3-8.95 7.5-9.67 7.5-.31 0-.56-.81-.56-1.81M36.82 22.53C47.61 12.59 59.64 4.02 66.25 2.48 67.76 2.13 69 1.43 69 .92c0-.18 7.49-.34 21.35-.46-12.83.29-14.73.78-17.35 1.6-13.1 4.09-25.51 11.21-36.18 20.47m272.66 191.43c1.08 1.76 3.39 1.15 4.63-1.21 1.59-3.01 3.06-3.85 4.56-2.61 1.28 1.06 3.33.39 3.33-1.08 0-.46-1.15-1.58-2.56-2.51-2.51-1.64-2.62-1.61-6.58 2.35-2.21 2.22-3.73 4.49-3.38 5.06M421.6.15l9.9.01 4.14 2.67c2.28 1.47 7.46 4.67 11.5 7.12 2.51 1.52 4.92 3.09 7.24 4.7-7.32-4.52-17.38-9.33-25.61-12.09ZM.41 138.71.5 84.5l4.25-12.29c1.4-4.04 2.6-7.34 3.76-10.25-2.57 6.68-4.92 14.55-6.14 20.91C1.01 89.96.66 99.84.41 138.71m293.5 20.42c.35.67.75 1.6 1.26 2.84.73 1.75 1.5 3.3 2.05 4.2-.36-.34-.77-.78-1.2-1.28-1.39-1.64-1.83-1.84-1.41-.63.46 1.33.21 1.61-1 1.14-.92-.35-1.6-1.74-1.59-3.26.01-2.07.22-2.32.98-1.14.8 1.23.97 1.13.98-.58.01-.5-.02-.93-.07-1.29m-48.14-8.64.39.26.39 26.12c.03 1.8.05 3.48.07 5.06-.08-3.54-.19-7.66-.33-12.47Zm114.36-33.16a361 361 0 0 1-6.88 8.04c-3.83 4.37-11.07 12.72-18.76 21.63 10.57-12.33 17.3-20.24 19.51-22.94 1.72-2.1 4.32-4.95 6.13-6.73m-51.74 180.25c-1.59-4.15-2.39-.49-2.39 10.92v-.94c0-7.39.39-13.68.87-13.98.67-.41 1.2 1.07 1.57 4.14-.02-.06-.03-.1-.05-.14M475.77 33.95c8.8 10.44 15.21 22.43 19.39 36.17-4.13-13.28-10.81-25.68-19.39-36.17M280.64 192.29c7.31-8.62 13.81-16.64 14.33-18.02 0 .05.01.09 0 .12-.01.61-2.15 3.63-4.75 6.71a1065 1065 0 0 1-9.58 11.19M295 252c0 .55-.48 1-1.06 1s-.78-.45-.44-1 .82-1 1.06-1 .44.45.44 1m24-44.61c0 .15-.66.28-1.46.28s-1.22-.39-.93-.85c.45-.72 2.39-.26 2.39.57m37.98-100.73c1.61 1.16 3.16 2.31 4.39 3.28q-.42-.27-.87-.51c-1.92-1.04-3.5-2.23-3.5-2.66 0-.03-.01-.07-.02-.11m44.31 89.26c-1.07-.57-1.77-.92-1.83-.92-.17 0-4.07-2.14-8.67-4.75-4.61-2.61-10.05-5.61-12.08-6.66-2.04-1.04-3.7-2.41-3.71-3.03.01.62 1.68 1.99 3.72 3.03 2.05 1.05 5.76 3.07 8.25 4.48 2.49 1.42 8.13 4.51 12.53 6.89.62.33 1.22.65 1.79.96m-186.17-43.13c-.98-.56-2.07-1.18-3.2-1.83l-6.92-4.05v-.23l6.75 4.11c1.19.72 2.34 1.4 3.37 2M109.04 351.53c.33.12 2.55-2.05 6.55-6.39-1.51 1.7-2.68 3.02-3.3 3.72-1.72 1.94-3.14 3.11-3.25 2.67M408.33 68.98c.24-.1.47-.19.67-.27 1.38-.55 7.56-2.69 13.75-4.76l3.62-1.2-3.62 1.24c-3.26 1.11-8.59 2.95-14.42 4.99m-115.59 98.85c-2.66-6.07-3.36-7.77-2.8-8.71.2-.33.56-.57 1.05-.88-1.63 1.02-1.55 1.55 1.13 8.06.22.52.42 1.03.62 1.53m-63.75-35.25c-1.9-.86-4.8-2.44-6.94-3.78-.05-.04-.1-.07-.15-.1 2.4 1.31 4.8 2.62 7.09 3.88m69.1 34.28c.45-.66 1.37-3.58 2.18-7.05 1.59-6.76 3.83-10.8 5.28-9.59-1.42-1.19-3.61 2.7-5.2 9.3-.92 3.84-1.82 7.16-1.99 7.37-.04.05-.14.04-.27-.03m-28.4 54.92c1.2-1.37 2.36-2.69 3.49-3.98l-13.33 15.28-.02-.02Zm97.53-50.34c12.93-15.04 19.93-23.06 23.4-26.77-3.24 3.49-9.9 11.1-23.4 26.77M130.23 328.63c2.94-3.38 6-6.89 9.02-10.4-1.44 1.74-5.01 5.85-9.02 10.4m129.34-113c.47-.28 1.6-1.37 3.17-3.02-1.59 1.73-2.61 2.81-2.83 2.94-.08.06-.2.08-.34.08M499 84.39v18.06l-.02 11.52ZM220.81 255c-.82.09-6.33 5.89-12.59 13.25 6.31-7.42 11.83-13.25 12.57-13.25Zm196.13-46.98c-.02-1.11-.04-1.98-.07-2.59.08.2.1.38.1.57a62 62 0 0 0-.03 2.02m-111.17-44.81c-2.03 2.16-3.41 3.49-3.52 3.37h-.01c.14.08 1.51-1.24 3.53-3.37m-6.16 24.27c-2.44 2.82-4.39 5.07-5.61 6.46-.27.31-.56.64-.87 1 2.27-2.62 4.41-5.08 6.48-7.46m82.64-16.3c-3.88 4.57-7.25 8.82-7.25 9.37 0-.56 3.36-4.79 7.25-9.37m-89.95-13.55c-.36.08-.79.28-1.28.59l.12-.08c.47-.29.84-.48 1.16-.51M19.52 41.6c.48-.69.98-1.39 1.52-2.09-.52.69-1.02 1.38-1.52 2.09"/><path fill="#dc3249" d="M78.15 283.26c-1.38-5.15-2.9-73.42-1.78-79.43.65-3.46 1.46-4.11 14.41-11.69 7.55-4.42 17.04-10.19 21.09-12.84 4.06-2.64 9.15-5.81 11.33-7.05 2.17-1.24 6.51-4.17 9.63-6.52s6.79-4.88 8.17-5.61c3.48-1.86 8.01-7.48 9.59-11.91 2.29-6.41 1.69-17.53-1.59-29.71-1.63-6.05-2.97-12.66-2.98-14.69s-.47-3.97-1.02-4.31-1-1.55-1-2.69c0-2.85-3.38-5.53-7.94-6.3-5.04-.85-10.38-6.62-9.65-10.41.43-2.22-.48-3.47-6.36-8.6-3.77-3.3-7.3-7.15-7.84-8.56-.53-1.41-1.71-3.3-2.61-4.2s-2.03-3.73-2.51-6.28c-.47-2.55-1.37-5.14-1.98-5.75s-1.11-3.54-1.11-6.5c0-3.88-.56-6.11-2-7.94-2.19-2.78-2.56-5.31-.99-6.88 1.1-1.1 1.37-6.42.67-13.36-.35-3.36-.05-4.78 1.18-5.72 1.39-1.05 1.41-1.26.14-1.35-1.05-.07-.9-.39.5-1.05 1.34-.63-1.19-.77-7.6-.42-38.09 2.09-71.53 27.47-84.87 64.42C5.53 83.15 5 90.68 4.99 154.13c0 50.66-.17 57.05-1.45 54.6-2.11-4.06-3.03-15.07-3.18-42.65l.05-27.37c.25-38.87.6-48.75 1.96-55.84 1.22-6.36 3.57-14.23 6.14-20.91 2.82-7.05 5.4-11.75 9.94-18.77.33-.52.69-1.06 1.07-1.59.5-.71 1-1.4 1.52-2.09 4.09-5.43 9.74-11.42 15.78-16.98C47.49 13.27 59.9 6.15 73 2.06c2.62-.82 4.52-1.31 17.35-1.6C118.47.2 172.79.05 243.93.08c-16.32.07-31.16.38-32.43.92-1.16.5 14.38.89 37.19.93 25.13.04 39.41-.29 39.81-.93.33-.53-12.82-.83-28.35-.92L421.6.15l7.17 2.41c8.23 2.76 18.29 7.57 25.61 12.09 8.28 5.77 15.39 12.17 21.39 19.3 8.58 10.49 15.26 22.89 19.39 36.17.45 1.47.87 2.95 1.27 4.46l2.57 9.81-.02 29.58-.12 74.63c-.15 19.64-.53 20.81-1.58 18.9-1.45-2.64-1.73-10.08-2.34-62.5-.65-55.35-.84-60.02-2.73-67-6.66-24.65-19.24-42.94-39.71-57.71-9.71-7-23.42-13.09-33.23-14.74-3.83-.65-4.08-.55-3.58 1.37.3 1.15 1.13 2.08 1.84 2.08 2.37 0 2.15 2.37-.42 4.58l-2.53 2.18 2.57 3.37c2.82 3.69 7.64 5.5 16.54 6.21 2.88.24 6.71 1.36 8.62 2.54 1.88 1.17 4.1 2.12 4.92 2.12 4.79 0 10.17 8.34 12.17 18.84 1.18 6.19 1.04 8.03-2.01 26.16-1.8 10.72-3.78 21.07-4.41 23-1.41 4.37-3.09 11.27-6.31 26-1.39 6.32-3 12.77-3.6 14.32-.59 1.54-1.07 4.16-1.07 5.8 0 7-7.89 29.9-11.25 32.68-1.34 1.11-1.68.98-2.27-.86-.37-1.18-.38-4.7-.01-7.8.18-1.52.82-5.8 1.72-11.64.97-5.83 2.15-13.07 3.32-20.5 2.49-15.68 5.27-32.55 6.19-37.5.31-1.66.6-3.67.86-5.77 1.19-7.06 3.04-18.33 4.46-27.23 1.68-10.45 3.29-19.79 3.58-20.75.33-1.07.01-1.75-.83-1.75-.75 0-10.35 3.2-21.32 7.11A5864 5864 0 0 1 387 64.01c-39.15 13.63-71.38 25.04-71.74 25.4-.32.32 20.82 17.04 29.29 23.17l2.87 2.07-7.96 9.15-7.96 9.14-.28-14.37c-.03-1.58-.04-2.98-.05-4.24-.03-4.89-.05-7.57-1.19-9.64-1.67-3.04-5.78-4.75-15.94-10.21-6.35-3.41-16.49-8.89-22.54-12.19-6.05-3.29-17.86-9.7-26.23-14.23l-15.24-8.23-15.26 8.22c-8.4 4.52-21.79 11.72-29.77 16s-19.23 10.41-25 13.62l-10.5 5.83-.5 26.95-.5 26.94-3.5 1.95c-1.93 1.08-5.75 3.41-8.5 5.18-1.66 1.07-5.27 3.17-9.45 5.52-3.45 1.83-7.05 3.76-10.05 5.41-2.71 1.49-6.96 3.81-11.83 6.47-17.76 9.54-37.89 20.27-40.17 21.41l-2.5 1.25-.26 41.11c-.21 32.75-.53 41.21-1.57 41.61-.87.33-1.72-1.02-2.52-4.04m289.07-111.82c-3.54 4.11-7.54 8.76-12.08 14.05-40.62 47.19-56.68 65.42-59.85 68.01-2.03 1.65-3.3 2.36-2.82 1.58.64-1.07.44-1.26-.81-.78-2.34.9-2.08-.04 1.09-3.84 1.51-1.81 4.26-5.35 6.11-7.86 1.84-2.52 4.68-6.04 6.31-7.84 5.79-6.39 10.83-13.47 10.83-15.21 0-1.97 4.69-7.98 6.4-8.18.6-.08 1.71-.19 2.46-.25.75-.07 1.11-.76.8-1.57-.38-.97-.08-1.26.9-.89 1.03.4 1.28.09.84-1.05-.35-.91-.11-1.61.55-1.61.64 0 .89-.44.56-.99-.34-.54-.03-.78.69-.53.71.26 2.07-.6 3.02-1.91 1.48-2.04 1.52-2.54.29-3.56-1.11-.93-1.92-.84-3.69.4-4.37 3.06-8.55 1.16-5.32-2.41.93-1.03 1.43-2.3 1.11-2.82-.63-1.02 9.4-13.79 12.57-16.02 1.05-.73 2.99-3.05 4.31-5.14 1.32-2.1 4.48-6.45 7.01-9.67l4.61-5.85-4.16 4.5c-2.29 2.48-18.38 21.15-35.75 41.5-30.46 35.69-43.1 50.46-48.54 56.46 5.02-5.89 17.71-20.72 32.17-37.58 18.33-21.38 35.96-42.03 39.19-45.88s8.03-9.58 10.67-12.73c2.65-3.16 5.83-6.45 7.08-7.32 1.24-.87 2.03-1.97 1.74-2.43-.28-.46.95-2.07 2.74-3.57 1.79-1.51 3.25-3.12 3.25-3.58s1.02-1.55 2.27-2.42c1.24-.87 2.02-1.98 1.73-2.45-.3-.48 1.47-2.55 3.93-4.61 2.46-2.05 4.29-4.03 4.06-4.4-.22-.37 2.15-3.33 5.27-6.58 3.13-3.25 5.59-6.22 5.48-6.6-.11-.39 1.14-1.66 2.79-2.83s2.76-2.5 2.49-2.96c-.28-.45 1.17-2.3 3.23-4.12 2.06-1.81 3.65-3.62 3.53-4.02-.13-.39 1.3-2.06 3.17-3.71 1.87-1.64 3.2-3.19 2.94-3.44-.25-.26 1.1-1.83 3-3.5 1.91-1.67 3.24-3.27 2.96-3.55s.86-1.52 2.53-2.75c1.67-1.24 2.82-2.6 2.55-3.04-.27-.43.86-1.78 2.5-3 1.65-1.21 2.79-2.54 2.53-2.95-.25-.41 1.23-2.22 3.29-4.03s3.75-3.62 3.75-4.02 1.91-2.86 4.25-5.46c1.94-2.16 3.58-4.23 4.09-5.12l-.42 3.04c-.32 2.28-3.67 23.05-7.45 46.15-3.79 23.1-7.18 44.36-7.55 47.25s-.96 5.25-1.3 5.24-5.68-4.73-11.87-10.5S393.78 142 393.52 142c-.25 0-.99.62-2.9 2.67-3.47 3.71-10.47 11.73-23.4 26.77M354.5 306.21c0-7.73-.5-12.14-1.8-15.86-1.9-5.47-6.49-13.15-10.41-17.45-2.18-2.38-2.35-3.32-2.08-11.4l.29-8.8 12.4-6.85c3.35-1.85 6.44-3.54 8.73-4.77l-5.68 3.25c-4.97 2.84-10.37 5.81-12 6.6-1.62.79-2.95 2.02-2.95 2.75s.7 1.32 1.56 1.32 1.31-.4 1.01-.89c-.69-1.12 4.16-4.39 5.39-3.64.49.31 3.23-.36 6.08-1.49 5.86-2.3 8.63-1.91 9.26 1.32.24 1.21.49-.8.56-4.47l.14-6.54c.37-.19.59-.29.62-.29.17 0 .43 4.04.59 8.97l.29 8.97 14.5-8.01v-18.9l4.95-2.52c-5.15 2.63-5.16 2.81-4.58 6.31.33 2.03.61 5.39.62 7.47l.01 3.79 2.19-2.04c3.07-2.86 11.52-2.84 15.18.03 2.46 1.94 2.63 2.6 2.63 10.36 0 10.08.96 17.71 2.13 16.99.48-.3.87.39.87 1.52s.45 2.06 1 2.06c.26 0 .48-1.71.64-4.99l-.14 19.29-16 8.94c-8.8 4.92-20.5 11.36-26 14.31l-10 5.36Zm-60.59-147.08c-.18-1.23-.69-1.72-1.61-1.5-.32.03-.69.22-1.16.51l-.12.08c-.01.01-.02.01-.03.02-.49.31-.85.55-1.05.88-.56.94.14 2.64 2.8 8.71 1.21 3.04 2.13 5.69 2.23 6.44-.52 1.38-7.02 9.4-14.33 18.02-6.86 7.93-14.04 16.08-17.9 20.32-1.57 1.65-2.7 2.74-3.17 3.02-.76-.01-2.22-.86-3.57-2.13-2.01-2.18-2.02-3.23-1.76-32.47l.19-21.9c.12-.12.3-.62.55-1.44 1.18-3.78 2.89-5.69 5.07-5.69.99 0 2.48-.68 3.31-1.5.82-.82 1.9-1.5 2.38-1.5.49 0 2.14-1.31 3.68-2.92 2.51-2.62 6.81-4.69 8.83-4.24.41.09.75-.96.75-2.32 0-2.25-.15-2.4-2.51-1.37 1.35-.63 2.66-1.15 3.06-1.15.25 0 .45 4.07.45 9.03v9.04l1.35-.75c.14-.05.3-.13.48-.23q.285-.15.6-.36l4.82-2.66 7.25-4 .28-9.3.29-9.29 9.39-5.27c-7.62 4.34-9.45 5.86-9.46 7.54 0 2.95.4 2.87 6.01-1.16 5.18-3.73 9.21-5.94 12.82-7.05l2.32-.72-.32 14.45-.33 14.45 2.05-1.34c-1.57 2.28-3.66 4.8-6.49 8.01-1.97 2.22-3.81 4.24-5.29 5.82-2.02 2.13-3.39 3.45-3.53 3.37-.18-.26.65-3.83 1.86-7.98 1.22-4.19 1.91-7.93 1.53-8.3-.02-.03-.05-.05-.08-.08-1.45-1.21-3.69 2.83-5.28 9.59-.81 3.47-1.73 6.39-2.18 7.05-.21-.11-.51-.35-.87-.69-.55-.9-1.32-2.45-2.05-4.2-.51-1.24-.91-2.17-1.26-2.84m107.38 36.79c-.57-.31-1.17-.63-1.79-.96-4.4-2.38-10.04-5.47-12.53-6.89-2.49-1.41-6.2-3.43-8.25-4.48-2.04-1.04-3.71-2.41-3.72-3.03v-.01c0-.55 3.37-4.8 7.25-9.37 3.89-4.58 8.3-9.5 10.38-11.39 2.03-1.79 2.29-1.61 10.96 7.24 4.88 5 10.12 11.07 11.63 13.49 2.74 4.4 2.81 7.48.17 7.48-3.22 0 .44 7.34 5.55 11.11l3.06 2.27-.06 28.56c-.09 39.8-1.76 54.65-4.69 41.79-.7-3.08-1.87-33.04-2.22-52.55a867 867 0 0 0-.09-11.16c0-.74.01-1.41.03-2.02 0-.19-.02-.37-.1-.57-.02-.59-.05-.92-.08-.95-.4-.35-11.11-6.24-15.5-8.56M254 336c0-18.15.38-33 .85-33 1.97 0 3.98 3.88 4.66 9 .81 6.2 4.81 17.59 7.02 20.04 1.08 1.19 1.47 4.2 1.47 11.37 0 7.36.31 9.66 1.25 9.34.79-.26 1.36-2.86 1.55-7.11.35-7.99 2.2-8.06 2.2-.08 0 5.4.8 6.59 2.79 4.19 1.09-1.32 1.21-1.74 1.21-4.4 0-1.54.13-1.54 1.83 0 1 .91 2.12 1.65 2.47 1.65.36 0 2.02.83 3.7 1.85l3.05 1.86-16.56 9.14c-9.11 5.03-16.77 9.15-17.02 9.15-.26 0-.47-14.85-.47-33m-120.4 17.17c-.46-.75-.24-1.11.58-.94.72.15 1.2-.33 1.05-1.05-.17-.81.19-1.04.92-.59q1.185.735.6-.81c-.38-.98 1.64-4.39 7.17-11.69 4.82-5.89 10.57-13.14 14.9-18.77 5.17-6.36 11.39-13.9 18.78-22.82 28.88-34.8 41.5-49.5 42.5-49.5 1.67 0 33.35 32.35 32.1 32.77-.99.33-1.01.75-.12 1.83.64.77.84 1.4.45 1.4-1.34 0-6.01-4.14-18.17-16.08-6.04-5.93-11.62-10.89-13.21-11.78-.15-.09-.26-.14-.32-.14h-.02c-.76 0-6.28 5.83-12.59 13.25-.42.49-.85.99-1.27 1.5-14.52 17.25-16.27 19.3-21.02 24.7-1.96 2.23-6.9 8.1-10.98 13.05-2.8 3.39-5.81 7-7.89 9.46l-.04.04c-.31.27-5.34 6.12-11.17 13-16.63 19.59-21.39 24.55-22.25 23.17m72.95-5.49c-7.48-4.04-13.89-7.48-17.3-9.28l-9.25-4.87.03-7.52.03-7.51 15.03-17.5c8.26-9.62 15.38-17.86 15.81-18.3.39-.39 3.27.79 8.99 3.71-3.09-1.51-3.35-1.35-4.29.24-1.71 2.9-15.35 31.79-20.13 42.63l-4.3 9.78 2.16 1.32c.88.54 6.27 3.51 13.22 7.3M309 307c0 11.89.09 13.72 1.45 13.96-1.35-.22-1.45-1.74-1.45-10.88 0-5.75-.25-11.15-.56-12.36-.37-3.07-.9-4.55-1.57-4.14-.48.3-.87 6.59-.87 13.98V293h-5v15.06c0-7.12-.39-13.18-.86-13.47-.65-.4-1.31 3.17-1.73 8.31.08-4.87-.05-8.92-.47-9.35-1.45-1.46-2.1-.08-2.22 5.85-.29-3.44-.86-4.43-1.82-3.84-.5.31-.9 6.16-.9 13V321l-.01-11.75c-.01-6.46-.29-12.76-.62-14-.51-1.89-2.93-2.84-4.06-1.96.15-.53.34-.96.59-1.35.43-.71 1.04-1.31 1.87-2.19 2.32-2.45 5.46-4.37 8.84-5.53-.13.26.02.56.56.9.73.46 2.04.61 2.91.34 2.61-.81 10.25-.87 12.92-.1l2.5.72-2.5-1.5c-1.9-1.15-6.45-1.63-10.28-1.56.32-.01.65-.02.97-.02 8.03 0 11.01.98 15.81 5.21l4.5 3.96v.83h-6v8.85c-.47-8.29-1.4-8.96-1.8-2.13-.09-3.43-.31-5.92-.7-6.06-2.51-.91-3.12.51-2.39 5.61.04.26.07.54.11.85-.47-3.23-1.11-5.12-1.86-5.12-.57 0-.92.76-1.12 3-.2-4.55-1.03-5-3.32-5-.52 0-.92 6.16-.92 14m56.48-91.11c-7.14-3.88-13.31-7.37-13.72-7.76-.79-.75 12.94-17.22 14.87-17.85.63-.2 1.76.21 2.53.93.76.71 2.05 1.43 2.86 1.6.99.21 8.13 3.91 15.19 7.72-6.91-3.56-10.57-4.92-9.71-3.54.52.85-12.47 12.88-15.9 14.73-1.65.89-.63 1.72 7.49 6.11l9.39 5.09-.03.02Zm-34.98 26.94c-3.3-1.69-6.17-3.23-6.38-3.42-.45-.4 16.83-20.41 17.63-20.41.66 0 7.21 3.48 12.86 6.66-1.91-.96-3.54-1.66-4.06-1.66-.6 0-5.48 4.05-10.84 9.01l-9.74 9 3.26 1.99c.53.32 1.04.61 1.53.86-1.19-.51-2.69-1.23-4.26-2.03M276 180.26v-5.67l3.96 3.87c5.76 5.62 7.04 4.15 7.04-8.08 0-5.16-.19-9.38-.42-9.38-2.79 0-3.58 1.61-3.58 7.31v6.1l-3.83-3.74c-6-5.86-7.17-4.63-7.17 7.47 0 9.62.06 9.9 2 8.86 1.64-.88 2-2.09 2-6.74m94.8 114.34.31-5.89 3.34 3.24c1.95 1.89 4.11 3.09 5.19 2.88 1.64-.31 1.89-1.53 2.15-10.09.15-5.36.08-9.74-.17-9.74-2.83 0-3.62 1.59-3.62 7.31v6.1l-3.83-3.74c-5.94-5.8-7.17-4.6-7.17 7.01 0 8.48.18 9.43 1.75 9.13 1.39-.26 1.81-1.55 2.05-6.21m22.39-6.93c1.56-1.56 7.31-21.51 6.44-22.37-1.37-1.37-3.52 2.23-5.21 8.73-.99 3.83-2.13 6.97-2.53 6.97s-1.5-2.02-2.44-4.5c-1.72-4.5-2.77-5.22-5.29-3.62-1.07.68-.63 2.41 2.18 8.49 3.61 7.8 4.51 8.63 6.85 6.3m-69.22-26.93c-3.9-1.47-8.72-2.72-11.05-2.73-4.01-.02-4.12-.97-.64-5.26 1.77-2.18 3.92-4.85 4.77-5.92 1.52-1.91 1.72-1.86 8.75 2.19l7.2 4.15v5.31c0-5.32-.12-5.57-3.51-7.19-3.84-1.83-4.01-1.73-7.36 3.88l-2.19 3.67ZM98.94 335.75c3.62-3.47 8.34-7.83 11.06-10.2 3.03-2.64 5.5-5.15 5.5-5.56 0-1.56 21.45-23.88 22.03-22.94.34.54 1 .74 1.47.45s1.19-.01 1.59.64c.48.79.26.91-.69.37-1.1-.63-1.15-.53-.21.48.72.79 1.4.81 2.84-.19a5810 5810 0 0 1-18.11 14.67c-8.28 6.68-18.55 15.66-25.48 22.28m130.15-52.79c-5.73-3.23-10.81-6.28-11.29-6.76-.51-.51-.06-1.89 1.04-3.25l1.91-2.36 5.88 5.12c5.86 5.11 14.18 13.36 13.32 13.21-.25-.04-5.14-2.72-10.86-5.96M264 356.02c1.17-.74 1.51-3.25 1.56-11.48.03-5.8-.11-10.54-.32-10.54-.2 0-1.24.47-2.31 1.04-1.72.92-1.93 2.17-1.93 11.5 0 5.75.34 10.45.75 10.44.41 0 1.42-.44 2.25-.96m98.8-51.22c1.31-1.31 1.56-7.9.57-15.13-.55-3.97-.87-4.47-2.36-3.67-1.49.79-1.68 2.2-1.38 10.21.19 5.11.36 9.4.36 9.54.02.69 1.75.11 2.81-.95m-96.38-113.41c1.29-.49 1.58-2.36 1.58-10.07 0-8.48-.18-9.43-1.75-9.13-1.5.29-1.79 1.73-2.04 10.07-.15 5.36-.08 9.74.17 9.74s1.17-.27 2.04-.61M84.54 323.57c.4-3.66 8.03-13.57 10.43-13.57 4.07 0 3.09 2.42-3.72 9.23-6.23 6.23-6.97 6.71-6.71 4.34m224.94-109.61c-.35-.57 1.17-2.84 3.38-5.06 3.96-3.96 4.07-3.99 6.58-2.35 1.41.93 2.56 2.05 2.56 2.51 0 1.47-2.05 2.14-3.33 1.08-1.5-1.24-2.97-.4-4.56 2.61-1.24 2.36-3.55 2.97-4.63 1.21m-164.5 82.84c3.09-2.79 6.18-6.63 4.26-5.45-.61.38-1.38.23-1.73-.33s-.08-1.02.6-1.02c.67 0 .92-.3.55-.67-.86-.86 4.43-4.39 5.54-3.7.46.28.55.96.21 1.51-.69 1.13 3.14-.87 5.85-3.05 1.55-1.25 2.22-1.54 1.96-.82-1.11.62-5.42 3.91-10.39 7.96-2.4 1.95-4.67 3.8-6.85 5.57m207.89-90.41c-.8 1.61-.49 1.48 1.29-.55 1.29-1.46 3.35-3.16 4.59-3.78s2.25-1.92 2.25-2.9c0-.97.34-2.21.75-2.77.41-.55-1.18.99-3.54 3.44s-4.76 5.4-5.34 6.56m-20.3 23.15c-1.62 2.47-1.62 2.51.36 1.27 2.18-1.36 3.56-3.81 2.15-3.81-.47 0-1.6 1.14-2.51 2.54M295 252c0-.55-.2-1-.44-1s-.72.45-1.06 1-.14 1 .44 1 1.06-.45 1.06-1m24-44.61c0-.83-1.94-1.29-2.39-.57-.29.46.13.85.93.85s1.46-.13 1.46-.28M433.91 60.81c-.69-.24-5.3 1.16-18.81 5.81 3.06-1.06 5.72-1.97 7.65-2.63l3.62-1.24 7.62-2.54ZM296.96 320.99c.4-.16.77-3.39 1.04-7.58v.24c0 4.23-.42 7.35-1 7.35-.01 0-.03 0-.04-.01M288 321l-.07-7.84.18 7.84Zm31.68-175.16c.15-1.16.23-2.8.28-5.19l-.01 4.64c-.09.18-.18.36-.27.55M296.8 320.83c-.37-.66-.63-3.17-.74-6.95.2 3.62.48 6.27.74 6.95m31.89-57.91c2.21.94 3.29 1.09 3.82.26-.55 1.06-1.64.85-3.82-.26M310.97 321c1.28-.01 1.72-.49 1.97-5.3-.13 4.95-.56 5.3-1.94 5.3Zm7 0c.34-.09.64-2.06.85-4.91-.17 3.13-.45 4.91-.82 4.91zm3.7-.67c.08.08.2.16.37.23l-.54-.06-.02-.88c.06.4.12.65.19.71m-4.01.3c-.31-.71-.54-2.39-.62-4.56.13 2.17.35 3.85.62 4.56m-56.87-56.82c-.14.08-.24.11-.32.12-.14.01-.41-.13-.79-.38.43.22.78.3 1.11.26M325.85 321H327v.13Zm-98.89-30.86c2.27 1.22 4.79 2.59 7.57 4.12-2.61-1.43-5.27-2.88-7.57-4.12m12.51 75.47c-1.19-.65-2.44-1.34-3.74-2.05 1.64.9 2.93 1.6 3.74 2.05 2.72 1.5 5.15 2.64 6.03 2.87-.88-.23-3.31-1.37-6.03-2.87m-82.5-74.94c-1.21 1.55-2.63 3.32-4.26 5.34 1.53-1.9 2.98-3.7 4.26-5.34m245-81.69c.02.03.03.04.03.06 0 .2-.75.77-2.53 1.88 1.77-1.11 2.53-1.68 2.53-1.88 0-.02-.01-.03-.03-.06m-156.64 91.29c.24.13.38.21.41.23.02.01.05.25.07.69-.02-.43-.05-.67-.07-.68-.12-.07-.25-.15-.41-.24m160.6-83.15c-.07-.08-.15-.12-.23-.12.08 0 .16.04.23.12m-86.51-101.07c-.1-.61-.21-.93-.32-.88.11-.05.22.27.32.88m43.56 114.76c0-.01 0-.03-.01-.04.01.01.02.03.01.03z"/><path fill="#f7dfe0" d="M364 370.82c-1.38-.5-8.01-6.39-14.75-13.1-9.38-9.33-12.25-12.8-12.25-14.78 0-1.47-1.08-3.61-2.49-4.93-2.31-2.17-2.62-2.22-4.28-.72-3.73 3.38-13.51 7-20.21 7.48-17.78 1.27-35.24-11.4-39.62-28.75-2.18-8.66-1.49-17.96 1.9-25.37 3.41-7.43 11.56-15.94 18.59-19.4 5.09-2.49 6.63-2.75 16.61-2.75 9.66 0 11.61.3 16 2.46 6.45 3.16 15.47 12.2 18.35 18.4 5.3 11.38 5 24.66-.8 35.36l-2.85 5.27 1.97 2.5c1.37 1.74 2.95 2.51 5.17 2.51 2.75 0 4.85 1.68 15.33 12.25 6.67 6.74 12.42 13.24 12.78 14.45 1.51 5.09-4.52 10.91-9.45 9.12m-45.16-36.4c12.39-5.18 20.58-20.46 18.09-33.76-2.62-14.03-13.3-23.54-27.43-24.42-9.26-.58-17.04 2.25-23.24 8.44-6.4 6.41-8.74 12.14-8.69 21.32.05 8.54 2.15 14.33 7.36 20.26 8.34 9.5 22.53 12.92 33.91 8.16m-79.37 31.19c-3.28-1.81-14.52-7.93-24.97-13.6s-19.97-10.9-21.17-11.63l-2.16-1.32 4.3-9.78c4.78-10.84 18.42-39.73 20.13-42.63 1.05-1.78 1.25-1.77 5.5.37 3.2 1.61 21.32 11.53 24.64 13.49.42.24.52 67.56.1 67.98-.22.22-3.09-1.07-6.37-2.88m.53-17.53v-10.92l-10.4-5.58c-5.72-3.07-10.91-5.58-11.53-5.58-.8 0-1.05 3.21-.85 10.66l.28 10.66 10.5 5.79c5.77 3.19 10.84 5.82 11.25 5.84.41.03.75-4.87.75-10.87m-131 3.36c0-.9 18.34-24.16 43.71-55.43 9.45-11.66 11.76-15.31 7.55-11.92-2.71 2.18-6.54 4.18-5.85 3.05.34-.55.25-1.23-.21-1.51-1.11-.69-6.4 2.84-5.54 3.7.37.37.12.67-.55.67-.68 0-.95.46-.6 1.02s1.12.71 1.73.33c2.08-1.29-1.74 3.37-5.05 6.15-2.67 2.24-3.54 2.53-4.5 1.49-.94-1.01-.89-1.11.21-.48.95.54 1.17.42.69-.37-.4-.65-1.12-.93-1.59-.64s-1.13.09-1.47-.45c-.58-.94-22.03 21.38-22.03 22.94 0 .41-2.47 2.92-5.5 5.56s-8.54 7.75-12.25 11.35c-7.85 7.61-8.8 7.24-2.02-.79 9.2-10.92 79.84-93.57 84.27-98.6 2.48-2.81 11.85-13.75 20.84-24.31 8.98-10.56 16.8-19.2 17.38-19.2.57 0 10.17 8.79 21.33 19.54l20.3 19.54 13.33-15.28c7.32-8.4 16.7-19.14 20.82-23.86s16.73-19.32 28-32.45c11.27-13.12 25.34-29.38 31.25-36.12s10.73-12.62 10.71-13.06c-.06-.95-14.6-11.31-15.88-11.31-.48 0-1.13-.68-1.44-1.5-.32-.82-1.02-1.5-1.56-1.5-1.79 0-6.17-5.03-4.82-5.54.68-.26 8.44-2.9 17.24-5.87s24.55-8.41 35-12.08C425.99 62.74 434 60.12 434 60.92c0 .43-1.91 2.9-4.25 5.51-2.34 2.6-4.25 5.06-4.25 5.46s-1.69 2.21-3.75 4.02-3.54 3.62-3.29 4.03c.26.41-.88 1.74-2.53 2.95-1.64 1.22-2.77 2.57-2.5 3 .27.44-.88 1.8-2.55 3.04-1.67 1.23-2.81 2.47-2.53 2.75s-1.05 1.88-2.96 3.55c-1.9 1.67-3.25 3.24-3 3.5.26.25-1.07 1.8-2.94 3.44-1.87 1.65-3.3 3.32-3.17 3.71.12.4-1.47 2.21-3.53 4.02-2.06 1.82-3.51 3.67-3.23 4.12.27.46-.84 1.79-2.49 2.96s-2.9 2.44-2.79 2.83c.11.38-2.35 3.35-5.48 6.6-3.12 3.25-5.49 6.21-5.27 6.58.23.37-1.6 2.35-4.06 4.4-2.46 2.06-4.23 4.13-3.93 4.61.29.47-.49 1.58-1.73 2.45-1.25.87-2.27 1.96-2.27 2.42s-1.46 2.07-3.25 3.58c-1.79 1.5-3.02 3.11-2.74 3.57.29.46-.5 1.56-1.74 2.43-1.25.87-4.43 4.16-7.08 7.32-2.64 3.15-7.44 8.88-10.67 12.73s-20.86 24.5-39.19 45.88-33.83 39.5-34.44 40.25c-1.75 2.16-2.61 1.73-8.42-4.21-3.01-3.07-12.1-11.89-20.2-19.6l-14.73-14.02-2.77 3.32c-13.16 15.78-32.83 38.99-35.27 41.6-1.65 1.77-3 3.51-3 3.87 0 .35-1.87 2.5-4.15 4.78-2.29 2.27-6.4 6.83-9.14 10.13-5.19 6.25-21.51 25.24-35.14 40.89-13.44 15.43-20.57 23.08-20.57 22.05m-6-58.48-8.5-4.93-.5-35.52c-.33-23.35-.16-35.51.5-35.49.55 0 6.18 2.82 12.5 6.25l11.5 6.23.5 9.79.5 9.78 7.25 3.93 7.25 3.93v-8.96c0-4.94.34-8.96.75-8.95s5.16 2.41 10.55 5.33l9.81 5.3-18.81 21.78c-11.29 13.08-18.92 21.15-19.11 20.23-.33-1.61-17.01-11.17-17.92-10.26-1.38 1.38 1.3 3.76 8.66 7.68 8.08 4.31 9.12 5.47 6.87 7.72-1.78 1.78-2.53 1.53-11.8-3.84m13.28-15.13c.83-.52.68-1.69-.55-4.27-1.88-3.94-2.84-4.33-4.8-1.98-1.03 1.24-1.05 1.99-.12 3.49.65 1.05 1.19 3.62 1.19 5.72 0 2.09.56 4.38 1.25 5.07 1 1.01 1.31.41 1.57-3.03.17-2.36.83-4.62 1.46-5m-9.12-4.93c.86-.53-1.04-5.87-2.78-7.81-.87-.97-4.32 3.28-3.5 4.31.48.61 1.19 3.35 1.59 6.1.95 6.57 2.92 7.89 3.35 2.24.17-2.32.78-4.49 1.34-4.84m297.84-.96c0-1.13-.39-1.82-.87-1.52-1.17.72-2.13-6.91-2.13-16.99 0-7.76-.17-8.42-2.63-10.36-3.66-2.87-12.11-2.89-15.18-.03l-2.19 2.04-.01-3.79c-.01-2.08-.29-5.44-.62-7.47-.6-3.65-.57-3.69 5.26-6.65 3.23-1.64 8.54-4.6 11.81-6.57 3.27-1.98 6.53-3.6 7.25-3.6 1.05 0 1.31 5.68 1.31 28.5 0 18.33-.36 28.5-1 28.5-.55 0-1-.93-1-2.06m-79.78-10.6-5.28-2.5 2.19-3.67c3.35-5.61 3.52-5.71 7.36-3.88 3.39 1.62 3.51 1.87 3.51 7.19 0 6.37-.2 6.44-7.78 2.86m15.78-7.66c0-.73 1.33-1.96 2.95-2.75 1.63-.79 7.03-3.76 12-6.6l9.05-5.18-.14 6.68c-.07 3.67-.32 5.68-.56 4.47-.63-3.23-3.4-3.62-9.26-1.32-2.85 1.13-5.59 1.8-6.08 1.49-1.23-.75-6.08 2.52-5.39 3.64.3.49-.15.89-1.01.89s-1.56-.59-1.56-1.32m-7.77-9.68-3.26-1.99 9.74-9c5.36-4.96 10.24-9.01 10.84-9.01 1.52 0 12.45 6 12.43 6.83-.01.54-23.32 14.02-25.8 14.92-.37.13-2.15-.65-3.95-1.75m-184.95-6.33c-6.17-3.39-11.23-6.4-11.25-6.69-.05-.85 50.94-28.92 52.6-28.96.62-.01 1.66.62 2.3 1.4 1.27 1.53 1.86.75-21.21 27.83-5.98 7.01-10.95 12.71-11.04 12.67-.1-.05-5.23-2.86-11.4-6.25m184.29-8.13c.91-1.4 2.04-2.54 2.51-2.54 1.41 0 .03 2.45-2.15 3.81-1.98 1.24-1.98 1.2-.36-1.27m-222.36-13.33c-6.67-3.68-11.8-7-11.42-7.37.39-.38 13.99-7.97 30.21-16.87 16.23-8.9 31.34-17.27 33.59-18.58 7.19-4.2 7.53-3.84 7.33 7.72-.17 10.08.07 10.91 3.58 12.24.55.21.77.61.5.9-.27.28-11.75 6.7-25.5 14.26-13.75 7.55-25.26 13.88-25.58 14.07-.32.18-6.04-2.69-12.71-6.37m258.88 1.62c-8.12-4.39-9.14-5.22-7.49-6.11 3.43-1.85 16.42-13.88 15.9-14.73-1.03-1.66 4.49.65 14.36 6.01 5.58 3.02 10.14 5.74 10.14 6.04 0 .5-4.64 3.28-18.01 10.79l-5.51 3.09zm-16.22-11.44c.58-1.16 2.98-4.11 5.34-6.56s3.95-3.99 3.54-3.44c-.41.56-.75 1.8-.75 2.77 0 .98-1.01 2.28-2.25 2.9s-3.3 2.32-4.59 3.78c-1.78 2.03-2.09 2.16-1.29.55m-113.41-8.47c-2.73-2.8-8.83-8.64-13.57-12.98l-8.61-7.9-8.71 9.99-8.71 9.99-9.92-5.26-9.91-5.26-.01-35.75c-.01-19.66.32-35.73.73-35.7.41.02 4.35 2.04 8.75 4.48 4.4 2.45 9.69 5.36 11.75 6.48l3.75 2.03v18.87l6.92 4.05c3.81 2.22 7.19 4.04 7.5 4.04.32 0 .58-4.05.58-9s.3-9 .67-9 6.17 3.02 12.89 6.71l12.21 6.71.52 19.04c.84 30.4.78 33.54-.62 33.54-.68 0-3.48-2.29-6.21-5.08M203 190.53c0-1.44-13.32-9.49-15.75-9.52-3.19-.03-.57 2.86 6.02 6.64 7.94 4.56 9.73 5.09 9.73 2.88m-1.25-10.03c-.38-3.38-.16-4.5.86-4.5 1.09 0 1.02-.7-.31-3.5-1.93-4.04-2.37-4.19-4.71-1.6-1.13 1.24-1.35 2.13-.66 2.56.59.36 1.07 2.24 1.07 4.16 0 3.91 1.49 7.38 3.17 7.38.7 0 .91-1.6.58-4.5m-9.75-5c0-2.48.44-4.5.98-4.5.59 0 .52-1.09-.19-2.75-1.85-4.34-2.57-4.76-4.8-2.74-1.79 1.62-1.86 1.98-.53 2.73 1.05.59 1.54 2.38 1.54 5.64 0 2.63.3 5.09.67 5.45 1.59 1.59 2.33.37 2.33-3.83m62.3-19.9.2-4.89 9-4.98c4.95-2.74 9.23-5.27 9.5-5.63.27-.35 1.74-1.18 3.25-1.85 2.59-1.13 2.75-1.06 2.75 1.27 0 1.36-.34 2.41-.75 2.32-2.02-.45-6.32 1.62-8.83 4.24-1.54 1.61-3.19 2.92-3.68 2.92-.48 0-1.56.68-2.38 1.5-.83.82-2.32 1.5-3.31 1.5-2.18 0-3.89 1.91-5.07 5.69-.74 2.36-.84 2.03-.68-2.09m61.53-19.33.32-14.45-2.32.72c-3.61 1.11-7.64 3.32-12.82 7.05-5.61 4.03-6.01 4.11-6.01 1.16.01-1.83 2.18-3.47 11.6-8.75 6.38-3.57 12-6.65 12.5-6.83.51-.19.9 6.76.9 16.13 0 15.98-.07 16.51-2.25 17.95l-2.25 1.47zm-68.33 7c-1.1-.28-2.25-.9-2.57-1.4-.83-1.31-45.98-25.87-47.57-25.87-.75 0-1.36-.48-1.36-1.06s-.45-.78-1-.44-1 .25-1-.19c0-.45-2.02-1.89-4.5-3.2s-4.5-2.66-4.5-3 6.07-3.92 13.48-7.96l13.48-7.35 32.64 18.04 32.64 18.04-3.37 2.04c-1.85 1.12-4.04 2.5-4.87 3.06-1.82 1.25-19 10.07-19.29 9.9-.12-.06-1.11-.34-2.21-.61m38.5-24.99c-2.48-1.45-17.01-9.48-32.3-17.86L225.91 85.2l5.29-2.95c19.75-11.01 18.43-10.49 22.03-8.68 3.91 1.98 21.66 11.63 42.27 23 8.25 4.55 16.24 8.83 17.75 9.51s2.75 1.54 2.75 1.9-2.7 1.94-6 3.52-6 3.17-6 3.53c0 .62-11.87 6.03-13 5.93-.27-.02-2.52-1.23-5-2.68M211.5 1c2.92-1.25 77.77-1.25 77 0-.4.64-14.68.97-39.81.93-22.81-.04-38.35-.43-37.19-.93m76.31 306.98c-.17-7.16-.16-13.46.02-14 .65-1.9 3.94-.98 4.54 1.27.33 1.24.61 7.54.62 14L293 321h-4.89zm8-.23c-.35-12.89.15-16.2 2.13-14.2 1.12 1.12.14 27.45-1.01 27.45-.42 0-.93-5.96-1.12-13.25M301 307v-14h5v28h-5zm8 0c0-7.84.4-14 .92-14 3.36 0 3.58.97 3.28 14.51-.29 12.59-.44 13.49-2.25 13.49-1.84 0-1.95-.8-1.95-14m7.93 5.75c-.04-4.54-.41-10.6-.82-13.48-.73-5.1-.12-6.52 2.39-5.61 1.3.47.75 27.34-.55 27.34-.52 0-.98-3.71-1.02-8.25m4.74 7.58c-.37-.36-.67-6.66-.67-14V293h6v28h-2.33c-1.29 0-2.64-.3-3-.67m-21.5-35.21c-3.84-2.42 11.83-2.95 15.83-.54l2.5 1.5-2.5-.72c-2.67-.77-10.31-.71-12.92.1-.87.27-2.18.12-2.91-.34m-71.92 65.07-8.24-4.69-.01-7.75c0-4.26.16-7.75.36-7.75s3.64 1.8 7.64 4 7.66 4 8.14 4c.47 0 .86 3.83.86 8.5s-.11 8.47-.25 8.44-3.96-2.17-8.5-4.75m6.75-4.69c0-3.02-.19-5.5-.42-5.5s-1.13-.27-2-.61c-1.31-.5-1.58.24-1.58 4.3 0 4.52 1.22 7.31 3.2 7.31.44 0 .8-2.48.8-5.5m-5.78-4.25c.23-2.95-.06-4.25-.94-4.25-1.41 0-1.86 9.08-.53 10.42.82.83.98.15 1.47-6.17m-4.63-5.87c-.29-.76-.99-1.38-1.56-1.38-1.47 0-1.28 9.35.22 10.86 1 1.01 1.31.33 1.56-3.42.17-2.58.07-5.31-.22-6.06"/></svg>